<svg width="32" height="32" viewBox="0 0 32 32" fill="none" xmlns="http://www.w3.org/2000/svg">
<path d="M22.4498 6C23.1779 5.99939 23.8987 6.14413 24.5701 6.42575C25.2416 6.70736 25.85 7.12018 26.3598 7.64C27.4102 8.70638 27.999 10.1432 27.999 11.64C27.999 13.1368 27.4102 14.5736 26.3598 15.64L15.9998 26.13L5.63978 15.64C4.58936 14.5736 4.00056 13.1368 4.00056 11.64C4.00056 10.1432 4.58936 8.70638 5.63978 7.64C6.14987 7.12055 6.75835 6.70795 7.42969 6.42629C8.10102 6.14464 8.82175 5.99957 9.54978 5.99957C10.2778 5.99957 10.9985 6.14464 11.6699 6.42629C12.3412 6.70795 12.9497 7.12055 13.4598 7.64L15.9998 10.24L18.5298 7.66C19.038 7.13398 19.6471 6.71586 20.3207 6.43064C20.9942 6.14542 21.7183 5.99895 22.4498 6M22.4498 4C21.4554 3.99916 20.4709 4.19686 19.5539 4.5815C18.6369 4.96615 17.806 5.53 17.1098 6.24L15.9998 7.36L14.8898 6.24C14.1927 5.53129 13.3616 4.96841 12.4448 4.58419C11.528 4.19997 10.5438 4.0021 9.54978 4.0021C8.55571 4.0021 7.57159 4.19997 6.65479 4.58419C5.73798 4.96841 4.90683 5.53129 4.20978 6.24C2.79165 7.68363 1.99707 9.62636 1.99707 11.65C1.99707 13.6736 2.79165 15.6164 4.20978 17.06L15.9998 29L27.7898 17.06C29.2079 15.6164 30.0025 13.6736 30.0025 11.65C30.0025 9.62636 29.2079 7.68363 27.7898 6.24C27.0929 5.53091 26.2618 4.96765 25.345 4.58306C24.4282 4.19848 23.444 4.00028 22.4498 4V4Z" fill="white"/>
</svg>
