<svg xmlns="http://www.w3.org/2000/svg" width="16.979" height="20" viewBox="0 0 16.979 20">
  <path id="box" d="M20.582,7.55a.191.191,0,0,1,0-.08.171.171,0,0,1,0-.07v-.09l-.06-.151h0a.483.483,0,0,0-.09-.111l-.09-.08h-.05l-3.962-2.5h0l-3.74-2.313A.855.855,0,0,0,12.3,2h-.08a.824.824,0,0,0-.271,0h-.1a1.136,1.136,0,0,0-.332.131L4,6.806l-.09.07-.09.08-.1.07-.05.06h0l-.06.151v.151a.694.694,0,0,0,0,.2v8.778a1,1,0,0,0,.473.855l7.541,4.665h0l.151.06h.08a.865.865,0,0,0,.523,0h.08l.151-.06h0l7.481-4.595a1,1,0,0,0,.473-.855V7.661A.546.546,0,0,0,20.582,7.55ZM12.046,4.182l1.79,1.106L8.215,8.767l-1.8-1.106ZM11.04,19.264,5.51,15.885V9.461l5.53,3.419Zm1.005-8.154-1.92-1.156,5.621-3.489,1.93,1.2Zm6.535,4.746-5.53,3.439V12.879l5.53-3.419Z" transform="translate(-3.603 -1.989)" fill="#0b4980" fill-rule="evenodd"/>
</svg>
