<svg width="28" height="28" viewBox="0 0 28 28" fill="none" xmlns="http://www.w3.org/2000/svg">
<path fill-rule="evenodd" clip-rule="evenodd" d="M10.6834 24.2333V20.6555C10.6834 19.7454 11.4253 19.006 12.3445 18.9999H15.7116C16.6352 18.9999 17.3839 19.7411 17.3839 20.6555V24.2444C17.3837 25.0171 18.0067 25.6486 18.7869 25.6667H21.0316C23.2693 25.6667 25.0834 23.8708 25.0834 21.6555V11.4775C25.0714 10.606 24.6581 9.78758 23.961 9.25521L16.284 3.13286C14.9391 2.06684 13.0273 2.06684 11.6823 3.13286L4.03905 9.26633C3.33932 9.79654 2.9253 10.6163 2.91669 11.4886V21.6555C2.91669 23.8708 4.73071 25.6667 6.96842 25.6667H9.21314C10.0128 25.6667 10.661 25.0249 10.661 24.2333" fill="#939393"/>
<path d="M10.6834 24.2333V20.6555C10.6834 19.7454 11.4253 19.006 12.3445 18.9999H15.7116C16.6352 18.9999 17.3839 19.7411 17.3839 20.6555V20.6555V24.2444C17.3837 25.0171 18.0067 25.6486 18.7869 25.6667H21.0316C23.2693 25.6667 25.0834 23.8708 25.0834 21.6555V21.6555V11.4775C25.0714 10.606 24.6581 9.78758 23.961 9.25521L16.284 3.13286C14.9391 2.06684 13.0273 2.06684 11.6823 3.13286L4.03905 9.26633C3.33932 9.79654 2.9253 10.6163 2.91669 11.4886V21.6555C2.91669 23.8708 4.73071 25.6667 6.96842 25.6667H9.21314C10.0128 25.6667 10.661 25.0249 10.661 24.2333V24.2333" stroke="#939393" stroke-width="1.5" stroke-linecap="round" stroke-linejoin="round"/>
</svg>
