<svg width="256" height="256" viewBox="0 0 256 256" fill="none" xmlns="http://www.w3.org/2000/svg">
<path d="M216 72H56C53.8783 72 51.8434 71.1571 50.3431 69.6569C48.8429 68.1566 48 66.1217 48 64C48 61.8783 48.8429 59.8434 50.3431 58.3431C51.8434 56.8429 53.8783 56 56 56H192C194.122 56 196.157 55.1571 197.657 53.6569C199.157 52.1566 200 50.1217 200 48C200 45.8783 199.157 43.8434 197.657 42.3431C196.157 40.8429 194.122 40 192 40H56C49.6429 40.0263 43.5537 42.5633 39.0585 47.0585C34.5633 51.5537 32.0263 57.6429 32 64V192C32.0263 198.357 34.5633 204.446 39.0585 208.941C43.5537 213.437 49.6429 215.974 56 216H216C220.243 216 224.313 214.314 227.314 211.314C230.314 208.313 232 204.243 232 200V88C232 83.7565 230.314 79.6869 227.314 76.6863C224.313 73.6857 220.243 72 216 72ZM216 200H56C53.8783 200 51.8434 199.157 50.3431 197.657C48.8429 196.157 48 194.122 48 192V86.6C50.5657 87.5255 53.2725 87.9991 56 88H216V200ZM168 144C168 141.627 168.704 139.307 170.022 137.333C171.341 135.36 173.215 133.822 175.408 132.913C177.601 132.005 180.013 131.768 182.341 132.231C184.669 132.694 186.807 133.836 188.485 135.515C190.164 137.193 191.306 139.331 191.769 141.659C192.232 143.987 191.995 146.399 191.087 148.592C190.178 150.785 188.64 152.659 186.667 153.978C184.693 155.296 182.373 156 180 156C176.817 156 173.765 154.736 171.515 152.485C169.264 150.235 168 147.183 168 144Z" fill="white"/>
</svg>
